<?xml version="1.0" encoding="utf-8" ?>
<svg baseProfile="full" height="300" version="1.1" width="300" xmlns="http://www.w3.org/2000/svg" xmlns:ev="http://www.w3.org/2001/xml-events" xmlns:xlink="http://www.w3.org/1999/xlink"><defs /><rect fill="rgb(44,44,44)" height="300" rx="60.0" ry="60.0" width="300" x="0" y="0" /><path d="M 30.0,243.86683027890038 L 31.206030150753765,243.66594585293478 L 32.41206030150753,243.44846435349106 L 33.61809045226131,243.2132529501463 L 34.824120603015075,242.95912437913023 L 36.030150753768844,242.68483643715896 L 37.23618090452261,242.38909168965546 L 38.442211055276374,242.07053741455928 L 39.64824120603016,241.7277658032853 L 40.854271356783926,241.35931444061777 L 42.06030150753769,240.96366708540683 L 43.26633165829145,240.5392547738578 L 44.47236180904522,240.08445726695408 L 45.678391959799,239.5976048631202 L 46.88442211055276,239.07698059660265 L 48.09045226130653,238.52082284120564 L 49.2964824120603,237.9273283379643 L 50.50251256281406,237.29465566405156 L 51.708542713567844,236.62092915869832 L 52.91457286432161,235.90424332014368 L 54.120603015075375,235.1426676856288 L 55.326633165829136,234.3342522041927 L 56.532663316582905,233.47703310952875 L 57.73869346733669,232.5690392974126 L 58.94472361809045,231.6082992092243 L 60.15075376884422,230.59284821986728 L 61.35678391959799,229.52073652493843 L 62.56281407035175,228.39003751835017 L 63.76884422110553,227.19885664775086 L 64.9748743718593,225.9453407310637 L 66.18090452261306,224.62768771328 L 67.38693467336682,223.24415683833007 L 68.5929648241206,221.793079206439 L 69.79899497487438,220.27286868288627 L 71.00502512562814,218.68203311956205 L 72.2110552763819,217.0191858461807 L 73.41708542713567,215.28305738351762 L 74.62311557788945,213.47250732661283 L 75.82914572864321,211.58653634157994 L 77.03517587939699,209.62429821551373 L 78.24120603015075,207.5851118950485 L 79.44723618090453,205.4684734454276 L 80.65326633165829,203.27406785854922 L 81.85929648241205,201.00178063539653 L 83.06532663316582,198.65170906559177 L 84.2713567839196,196.22417312457262 L 85.47738693467338,193.7197259071204 L 86.68341708542712,191.13916351471357 L 87.8894472361809,188.48353431347073 L 89.09547738693468,185.75414747932558 L 90.30150753768844,182.95258074756418 L 91.50753768844221,180.08068728498824 L 92.71356783919597,177.14060160476038 L 93.91959798994975,174.13474444646118 L 95.12562814070351,171.06582654705164 L 96.33165829145727,167.93685123229372 L 97.53768844221105,164.7511157627371 L 98.74371859296483,161.51221137362262 L 99.9497487437186,158.22402195396756 L 101.15577889447236,154.8907213166687 L 102.36180904522612,151.51676901864994 L 103.5678391959799,148.1069046978672 L 104.77386934673366,144.6661409023137 L 105.97989949748744,141.19975439500044 L 107.1859296482412,137.71327592816593 L 108.39195979899498,134.2124784896298 L 109.59798994974874,130.70336403418446 L 110.80402010050251,127.19214872314646 L 112.01005025125627,123.68524670558168 L 113.21608040201005,120.18925248520452 L 114.42211055276381,116.71092192743737 L 115.62814070351757,113.25715197152277 L 116.83417085427136,109.83495912281404 L 118.04020100502512,106.45145681034421 L 119.24623115577889,103.11383170439328 L 120.45226130653265,99.82931909795715 L 121.65829145728642,96.60517746467474 L 122.8643216080402,93.44866231381008 L 124.07035175879398,90.36699947023544 L 125.27638190954774,87.36735791393406 L 126.4824120603015,84.45682231927802 L 127.68844221105526,81.64236543915791 L 128.89447236180905,78.93082048290114 L 130.1005025125628,76.32885363975424 L 131.30653266331657,73.84293690148493 L 132.51256281407035,71.47932133834496 L 133.7185929648241,69.2440109822017 L 134.9246231155779,67.14273746908216 L 136.13065326633165,65.1809355906706 L 137.33668341708542,63.363719900467856 L 138.5427135678392,61.69586251537493 L 139.74874371859295,60.18177224742868 L 140.95477386934675,58.82547519333326 L 142.1608040201005,57.63059690134517 L 143.36683417085425,56.6003462260349 L 144.57286432160802,55.737500971537116 L 145.7788944723618,55.044395413180865 L 146.98492462311557,54.522909775949245 L 148.19095477386935,54.17446173614192 L 149.3969849246231,54.0 L 150.60301507537687,54.0 L 151.80904522613065,54.17446173614192 L 153.01507537688443,54.522909775949245 L 154.2211055276382,55.044395413180865 L 155.42713567839195,55.737500971537116 L 156.63316582914572,56.60034622603487 L 157.8391959798995,57.63059690134517 L 159.04522613065328,58.82547519333326 L 160.25125628140702,60.181772247428654 L 161.4572864321608,61.6958625153749 L 162.66331658291455,63.363719900467856 L 163.86934673366835,65.1809355906706 L 165.0753768844221,67.14273746908216 L 166.28140703517587,69.24401098220164 L 167.48743718592965,71.4793213383449 L 168.6934673366834,73.8429369014849 L 169.8994974874372,76.32885363975424 L 171.10552763819095,78.93082048290114 L 172.31155778894473,81.64236543915789 L 173.51758793969847,84.45682231927796 L 174.72361809045225,87.367357913934 L 175.92964824120602,90.36699947023544 L 177.1356783919598,93.44866231381008 L 178.34170854271355,96.60517746467468 L 179.54773869346732,99.8293190979571 L 180.7537688442211,103.11383170439322 L 181.95979899497488,106.45145681034421 L 183.16582914572865,109.83495912281404 L 184.3718592964824,113.25715197152275 L 185.57788944723617,116.71092192743734 L 186.78391959798995,120.18925248520446 L 187.98994974874373,123.68524670558168 L 189.19597989949747,127.19214872314646 L 190.40201005025125,130.70336403418446 L 191.60804020100502,134.2124784896298 L 192.81407035175877,137.7132759281659 L 194.02010050251255,141.19975439500044 L 195.2261306532663,144.66614090231366 L 196.4321608040201,148.10690469786718 L 197.63819095477388,151.51676901864994 L 198.84422110552762,154.89072131666865 L 200.0502512562814,158.22402195396756 L 201.25628140703515,161.51221137362256 L 202.46231155778895,164.75111576273707 L 203.66834170854273,167.93685123229372 L 204.87437185929647,171.0658265470516 L 206.08040201005025,174.13474444646118 L 207.286432160804,177.1406016047603 L 208.49246231155777,180.08068728498822 L 209.69849246231155,182.95258074756418 L 210.9045226130653,185.75414747932555 L 212.1105527638191,188.48353431347073 L 213.31658291457285,191.1391635147135 L 214.52261306532662,193.7197259071204 L 215.7286432160804,196.22417312457262 L 216.93467336683415,198.65170906559175 L 218.14070351758795,201.00178063539653 L 219.3467336683417,203.2740678585492 L 220.55276381909547,205.46847344542758 L 221.75879396984925,207.5851118950485 L 222.964824120603,209.6242982155137 L 224.17085427135677,211.58653634157994 L 225.37688442211052,213.4725073266128 L 226.5829145728643,215.2830573835176 L 227.7889447236181,217.0191858461807 L 228.99497487437185,218.68203311956202 L 230.20100502512562,220.27286868288627 L 231.40703517587937,221.79307920643896 L 232.61306532663315,223.24415683833007 L 233.81909547738695,224.62768771328 L 235.0251256281407,225.94534073106365 L 236.23115577889448,227.19885664775086 L 237.43718592964822,228.39003751835014 L 238.643216080402,229.5207365249384 L 239.84924623115577,230.59284821986728 L 241.05527638190952,231.6082992092243 L 242.2613065326633,232.5690392974126 L 243.46733668341705,233.47703310952875 L 244.67336683417085,234.33425220419267 L 245.87939698492463,235.1426676856288 L 247.08542713567837,235.90424332014368 L 248.29145728643215,236.62092915869832 L 249.4974874371859,237.29465566405153 L 250.7035175879397,237.92732833796427 L 251.90954773869348,238.52082284120564 L 253.11557788944722,239.07698059660262 L 254.321608040201,239.5976048631202 L 255.52763819095475,240.08445726695408 L 256.7336683417085,240.5392547738578 L 257.9396984924623,240.96366708540683 L 259.14572864321605,241.35931444061777 L 260.35175879396985,241.7277658032853 L 261.5577889447236,242.07053741455928 L 262.7638190954774,242.38909168965546 L 263.96984924623115,242.68483643715896 L 265.1758793969849,242.95912437913023 L 266.3819095477387,243.2132529501463 L 267.5879396984925,243.44846435349106 L 268.7939698492462,243.66594585293478 L 270.0,243.86683027890038" fill="none" stroke="white" stroke-width="16" /></svg>